<?xml version="1.0" encoding="UTF-8"?><svg id="Layer_1" xmlns="http://www.w3.org/2000/svg" xmlns:xlink="http://www.w3.org/1999/xlink" viewBox="0 0 76.17 72.74"><defs><style>.cls-1{fill:url(#linear-gradient);stroke-width:0px;}</style><linearGradient id="linear-gradient" x1="81.67" y1="-8.25" x2="10.75" y2="61.59" gradientUnits="userSpaceOnUse"><stop offset="0" stop-color="#1dd8ff"/><stop offset=".13" stop-color="#3cc5fc"/><stop offset=".32" stop-color="#65adf9"/><stop offset=".5" stop-color="#8599f6"/><stop offset=".68" stop-color="#9c8cf4"/><stop offset=".85" stop-color="#aa83f3"/><stop offset="1" stop-color="#af81f3"/></linearGradient></defs><path class="cls-1" d="m68.21.98l-29.22,21.49c-.71.52-1.68.52-2.38-.01L7.96.98C4.66-1.45,0,.91,0,5.01v56.89c0,5.99,4.85,10.84,10.84,10.84h54.49c5.99,0,10.84-4.85,10.84-10.84V5.01c0-4.1-4.66-6.46-7.96-4.03ZM29.96,51.76v5.85c0,3.11-2.52,5.64-5.64,5.64s-5.64-2.52-5.64-5.64v-5.85h0c0-3.11,2.52-5.64,5.64-5.64s5.64,2.52,5.64,5.64h0Zm17.72-12.33v18.18c0,3.11-2.52,5.64-5.64,5.64s-5.64-2.52-5.64-5.64v-18.18h0c0-3.11,2.52-5.64,5.64-5.64s5.64,2.52,5.64,5.64h0Zm17.72-13.5v31.69c0,3.11-2.52,5.64-5.64,5.64h0c-3.11,0-5.64-2.52-5.64-5.64v-31.69h0c0-3.11,2.52-5.64,5.64-5.64h0c3.11,0,5.64,2.52,5.64,5.64h0Z"/></svg>